<mxfile host="app.diagrams.net" modified="2023-12-04T08:10:12.488Z" agent="Mozilla/5.0 (Windows NT 10.0; Win64; x64) AppleWebKit/537.36 (KHTML, like Gecko) Chrome/118.0.0.0 Safari/537.36 OPR/104.0.0.0" etag="7PZTfYvmh0cXZG-7QwQF" version="22.1.5" type="device">
  <diagram name="Página-1" id="QKevh20zijrpoHFjILLP">
    <mxGraphModel dx="3874" dy="766" grid="1" gridSize="10" guides="1" tooltips="1" connect="1" arrows="1" fold="1" page="1" pageScale="1" pageWidth="827" pageHeight="1169" math="0" shadow="0">
      <root>
        <mxCell id="0" />
        <mxCell id="1" parent="0" />
        <mxCell id="_Bd6D42fP3kql52XD8L3-8" value="Demonic Destruction" style="html=1;whiteSpace=wrap;" parent="1" vertex="1">
          <mxGeometry x="640" y="30" width="110" height="50" as="geometry" />
        </mxCell>
        <mxCell id="_Bd6D42fP3kql52XD8L3-86" style="edgeStyle=orthogonalEdgeStyle;rounded=0;orthogonalLoop=1;jettySize=auto;html=1;entryX=0.5;entryY=1;entryDx=0;entryDy=0;" parent="1" source="_Bd6D42fP3kql52XD8L3-17" target="_Bd6D42fP3kql52XD8L3-8" edge="1">
          <mxGeometry relative="1" as="geometry" />
        </mxCell>
        <mxCell id="_Bd6D42fP3kql52XD8L3-17" value="Clases" style="shape=folder;fontStyle=1;spacingTop=10;tabWidth=40;tabHeight=14;tabPosition=left;html=1;whiteSpace=wrap;" parent="1" vertex="1">
          <mxGeometry x="240" y="170" width="110" height="80" as="geometry" />
        </mxCell>
        <mxCell id="_Bd6D42fP3kql52XD8L3-19" value="Funcionesjuego" style="swimlane;fontStyle=1;align=center;verticalAlign=top;childLayout=stackLayout;horizontal=1;startSize=26;horizontalStack=0;resizeParent=1;resizeParentMax=0;resizeLast=0;collapsible=1;marginBottom=0;whiteSpace=wrap;html=1;" parent="1" vertex="1">
          <mxGeometry x="-580" y="360" width="180" height="90" as="geometry" />
        </mxCell>
        <mxCell id="_Bd6D42fP3kql52XD8L3-20" value="- tiempo : int" style="text;strokeColor=none;fillColor=default;align=left;verticalAlign=top;spacingLeft=4;spacingRight=4;overflow=hidden;rotatable=0;points=[[0,0.5],[1,0.5]];portConstraint=eastwest;whiteSpace=wrap;html=1;" parent="_Bd6D42fP3kql52XD8L3-19" vertex="1">
          <mxGeometry y="26" width="180" height="26" as="geometry" />
        </mxCell>
        <mxCell id="_Bd6D42fP3kql52XD8L3-21" value="" style="line;strokeWidth=1;fillColor=default;align=left;verticalAlign=middle;spacingTop=-1;spacingLeft=3;spacingRight=3;rotatable=0;labelPosition=right;points=[];portConstraint=eastwest;strokeColor=inherit;" parent="_Bd6D42fP3kql52XD8L3-19" vertex="1">
          <mxGeometry y="52" width="180" height="8" as="geometry" />
        </mxCell>
        <mxCell id="_Bd6D42fP3kql52XD8L3-22" value="+ contadorDeTiempo : void" style="text;strokeColor=none;fillColor=default;align=left;verticalAlign=top;spacingLeft=4;spacingRight=4;overflow=hidden;rotatable=0;points=[[0,0.5],[1,0.5]];portConstraint=eastwest;whiteSpace=wrap;html=1;gradientColor=none;" parent="_Bd6D42fP3kql52XD8L3-19" vertex="1">
          <mxGeometry y="60" width="180" height="30" as="geometry" />
        </mxCell>
        <mxCell id="_Bd6D42fP3kql52XD8L3-23" value="Jugador" style="swimlane;fontStyle=1;align=center;verticalAlign=top;childLayout=stackLayout;horizontal=1;startSize=26;horizontalStack=0;resizeParent=1;resizeParentMax=0;resizeLast=0;collapsible=1;marginBottom=0;whiteSpace=wrap;html=1;" parent="1" vertex="1">
          <mxGeometry x="-380" y="360" width="300" height="990" as="geometry" />
        </mxCell>
        <mxCell id="_Bd6D42fP3kql52XD8L3-24" value="- contenedor : Ventanajuego&lt;br&gt;- etiquetaEscudo : JLabel&lt;br&gt;- nombre : String&lt;br&gt;- damage : int&lt;br&gt;- health : int&lt;br&gt;- x : int&lt;br&gt;- y : int&lt;br&gt;- jugadorVivo : boolean&lt;br&gt;- direccionAtaque : String&lt;br&gt;- iconoNormal : ImageIcon&lt;br&gt;- etiquetaPersonaje : JLabel&lt;br&gt;- iconoAtaque : ImageIcon&lt;br&gt;- invulnerable : boolean&lt;br&gt;- ultimoAtaque : long&lt;br&gt;- ultimoEscudo : long&lt;br&gt;- cooldownAtaque : int&lt;br&gt;- cooldownEscudo : int&lt;br&gt;- tiempoInicioInvulnerabilidad : long&lt;br&gt;- duracionInvulnerabilidad : long&lt;br&gt;- velocidadMovimiento : int" style="text;strokeColor=none;fillColor=default;align=left;verticalAlign=top;spacingLeft=4;spacingRight=4;overflow=hidden;rotatable=0;points=[[0,0.5],[1,0.5]];portConstraint=eastwest;whiteSpace=wrap;html=1;" parent="_Bd6D42fP3kql52XD8L3-23" vertex="1">
          <mxGeometry y="26" width="300" height="344" as="geometry" />
        </mxCell>
        <mxCell id="_Bd6D42fP3kql52XD8L3-25" value="" style="line;strokeWidth=1;fillColor=default;align=left;verticalAlign=middle;spacingTop=-1;spacingLeft=3;spacingRight=3;rotatable=0;labelPosition=right;points=[];portConstraint=eastwest;strokeColor=inherit;" parent="_Bd6D42fP3kql52XD8L3-23" vertex="1">
          <mxGeometry y="370" width="300" height="8" as="geometry" />
        </mxCell>
        <mxCell id="_Bd6D42fP3kql52XD8L3-26" value="+ Jugador(Ventanajuego contenedor)&lt;br&gt;+ setEtiquetaPersonaje(JLabel etiqueta) : void&lt;br&gt;+ getEtiquetaPersonaje : JLabel&amp;nbsp;&lt;br&gt;+ isJugadorVivo() : boolean&lt;br&gt;+ setNombre(String) : void&lt;br&gt;+ getNombre() : String&lt;br&gt;+ isJugadorVivo(Jugador) : boolean&lt;br&gt;+ setJugadorMuerto() : void&lt;br&gt;+ gethealth() : int&lt;br&gt;+ sethealth(int) : void&lt;br&gt;+ getDamage() : int&lt;br&gt;+ setDamage(int) : void&lt;br&gt;+ getX() : int&lt;br&gt;+ getY() : int&lt;br&gt;+ getValorCooldownEscudo() : int&lt;br&gt;+ getValorCooldownAtaqueMasivo() : int&lt;br&gt;+ setPosicion(int, int) : void&lt;br&gt;+ actualizarYAtacarEnemigod() : void&lt;br&gt;+ cambiarDireccionAtaque(String) : void&lt;br&gt;+ ataqueAutomatico(ArrayList&amp;lt;Monstruo&amp;gt;) : void&lt;br&gt;+ atacar(ArrayList&amp;lt;Monstruo&amp;gt;) : void&lt;br&gt;+ hayColision(JLabel, JLabel) : boolean&lt;br&gt;+ recibirDanio(int) : void&lt;br&gt;+ iniciarTemporizadorInvulnerabilidad() : void&lt;br&gt;+ puedeRecibirDanio() : boolean&lt;br&gt;+ invertirImagen(ImageIcon) : ImageIcon&lt;br&gt;+ moverJugador(int, int) : void&lt;br&gt;+ atacarATodos(ArrayList&amp;lt;Monstruo&amp;gt;) : void&lt;br&gt;+ getTiempoRestanteCooldownAtaqueMasivo() : long&lt;br&gt;- estaEnRango(Monstruo) : boolean&lt;br&gt;- mostrarAreaAtaque() : void&lt;br&gt;+ activarEscudo() : void&lt;br&gt;+ getTiempoRestanteCooldownEscudo() : long&lt;br&gt;- mostrarEscudo() : void&lt;br&gt;- ocultarEscudo() : void&lt;br&gt;+ recogerCuracion(Curacion) : void&lt;br&gt;+ disminuirDanio(int) : void&lt;br&gt;+ aumentarDanio(int) : void&lt;br&gt;+ getVelocidadMovimiento() : int&lt;br&gt;+ aumentarVelocidad(int) : void&lt;br&gt;+ disminuirVelocidad(int) : void" style="text;strokeColor=none;fillColor=default;align=left;verticalAlign=top;spacingLeft=4;spacingRight=4;overflow=hidden;rotatable=0;points=[[0,0.5],[1,0.5]];portConstraint=eastwest;whiteSpace=wrap;html=1;gradientColor=none;" parent="_Bd6D42fP3kql52XD8L3-23" vertex="1">
          <mxGeometry y="378" width="300" height="612" as="geometry" />
        </mxCell>
        <mxCell id="_Bd6D42fP3kql52XD8L3-61" style="edgeStyle=orthogonalEdgeStyle;rounded=0;orthogonalLoop=1;jettySize=auto;html=1;entryX=0.5;entryY=1;entryDx=0;entryDy=0;" parent="1" source="_Bd6D42fP3kql52XD8L3-31" target="_Bd6D42fP3kql52XD8L3-39" edge="1">
          <mxGeometry relative="1" as="geometry" />
        </mxCell>
        <mxCell id="_Bd6D42fP3kql52XD8L3-31" value="Monstruo" style="swimlane;fontStyle=1;align=center;verticalAlign=top;childLayout=stackLayout;horizontal=1;startSize=26;horizontalStack=0;resizeParent=1;resizeParentMax=0;resizeLast=0;collapsible=1;marginBottom=0;whiteSpace=wrap;html=1;" parent="1" vertex="1">
          <mxGeometry x="195" y="770" width="230" height="680" as="geometry">
            <mxRectangle x="190" y="320" width="100" height="30" as="alternateBounds" />
          </mxGeometry>
        </mxCell>
        <mxCell id="_Bd6D42fP3kql52XD8L3-32" value="- health : int&lt;br&gt;- damage : int&lt;br&gt;- level : int&lt;br&gt;- monstruoVivo : boolean&lt;br&gt;- tipo : TipoMonstruos&lt;br&gt;- x : int&lt;br&gt;- y : int&lt;br&gt;- ancho : int&lt;br&gt;- alto : int&lt;br&gt;- etiquetaVida : JLabel&lt;br&gt;- vida : int&lt;br&gt;- etiqueta : JLabel&lt;br&gt;- etiquetaMonstruo : JLabel&lt;br&gt;- observadores : List&amp;lt;Observador&amp;gt;" style="text;strokeColor=none;fillColor=default;align=left;verticalAlign=top;spacingLeft=4;spacingRight=4;overflow=hidden;rotatable=0;points=[[0,0.5],[1,0.5]];portConstraint=eastwest;whiteSpace=wrap;html=1;" parent="_Bd6D42fP3kql52XD8L3-31" vertex="1">
          <mxGeometry y="26" width="230" height="214" as="geometry" />
        </mxCell>
        <mxCell id="_Bd6D42fP3kql52XD8L3-33" value="" style="line;strokeWidth=1;fillColor=default;align=left;verticalAlign=middle;spacingTop=-1;spacingLeft=3;spacingRight=3;rotatable=0;labelPosition=right;points=[];portConstraint=eastwest;strokeColor=inherit;" parent="_Bd6D42fP3kql52XD8L3-31" vertex="1">
          <mxGeometry y="240" width="230" height="8" as="geometry" />
        </mxCell>
        <mxCell id="_Bd6D42fP3kql52XD8L3-34" value="+ getVida() : int&lt;br&gt;+ Monstruo(TipoMonstruos)&amp;nbsp;&lt;br&gt;+ getX() : int&lt;br&gt;+ getY() : int&lt;br&gt;+ setPosicion(int, int) : void&lt;br&gt;+ setTamaño(int, int) : void&lt;br&gt;+ multiplier(int) : void&lt;br&gt;+ gethealth() : int&lt;br&gt;+ getDamage() : int&lt;br&gt;+ getTipo() : TipoMonstruos&lt;br&gt;+ mostrarInformacion() : void&lt;br&gt;+ estaVivo() : boolean&lt;br&gt;+ agregarObservador(Observador) : void&lt;br&gt;+ eliminarObservador(Observador) : void&lt;br&gt;+ notificarObservadores(): void&lt;br style=&quot;border-color: var(--border-color);&quot;&gt;+ recibirDanio(int) : void&lt;br&gt;- morir() : void&lt;br&gt;+ setEtiquetaVida(JLabel) : void&lt;br&gt;+ getEtiquetaVida() : JLabel&lt;br&gt;+ getAlto() : int&lt;br&gt;+ getAncho() : int&lt;br&gt;+ getRectangulo() : Rectangle&lt;br&gt;+ inicializarEtiqueta(String) : void&lt;br&gt;+ setEtiquetaMonstruo(JLabel) : void&lt;br&gt;+ getEtiqueta() : JLabel&lt;br&gt;+ actualizarPosicionEtiqueta() : void&lt;br&gt;+ actualizarPosicion(int, int) : void&lt;br&gt;- actualizarHitbox() : void&lt;br&gt;+ getEtiquetaMonstruo() : JLabel" style="text;strokeColor=none;fillColor=default;align=left;verticalAlign=top;spacingLeft=4;spacingRight=4;overflow=hidden;rotatable=0;points=[[0,0.5],[1,0.5]];portConstraint=eastwest;whiteSpace=wrap;html=1;gradientColor=none;" parent="_Bd6D42fP3kql52XD8L3-31" vertex="1">
          <mxGeometry y="248" width="230" height="432" as="geometry" />
        </mxCell>
        <mxCell id="_Bd6D42fP3kql52XD8L3-35" value="Movimientopj" style="swimlane;fontStyle=1;align=center;verticalAlign=top;childLayout=stackLayout;horizontal=1;startSize=26;horizontalStack=0;resizeParent=1;resizeParentMax=0;resizeLast=0;collapsible=1;marginBottom=0;whiteSpace=wrap;html=1;" parent="1" vertex="1">
          <mxGeometry x="-70" y="360" width="210" height="220" as="geometry" />
        </mxCell>
        <mxCell id="_Bd6D42fP3kql52XD8L3-36" value="- p : ImageIcon&lt;br&gt;- pj : JLabel&lt;br&gt;- MOVIMIENTO_PASO : int&lt;br&gt;- LIMITE_SUPERIOR : int&lt;br&gt;- LIMITE_INFERIOR : int&lt;br&gt;- LIMITE_IZQUIERDO : int&lt;br&gt;- LIMITE_DERECHO : int" style="text;strokeColor=none;fillColor=default;align=left;verticalAlign=top;spacingLeft=4;spacingRight=4;overflow=hidden;rotatable=0;points=[[0,0.5],[1,0.5]];portConstraint=eastwest;whiteSpace=wrap;html=1;" parent="_Bd6D42fP3kql52XD8L3-35" vertex="1">
          <mxGeometry y="26" width="210" height="114" as="geometry" />
        </mxCell>
        <mxCell id="_Bd6D42fP3kql52XD8L3-37" value="" style="line;strokeWidth=1;fillColor=default;align=left;verticalAlign=middle;spacingTop=-1;spacingLeft=3;spacingRight=3;rotatable=0;labelPosition=right;points=[];portConstraint=eastwest;strokeColor=inherit;" parent="_Bd6D42fP3kql52XD8L3-35" vertex="1">
          <mxGeometry y="140" width="210" height="8" as="geometry" />
        </mxCell>
        <mxCell id="_Bd6D42fP3kql52XD8L3-38" value="+ Movimientopj()&amp;nbsp;&lt;br&gt;+ keyPressed(KeyEvent) : void&lt;br&gt;+ keyTyped(KeyEvent) : void&lt;br&gt;+ keyReleased(KeyEvent) : void&lt;br&gt;" style="text;strokeColor=none;fillColor=default;align=left;verticalAlign=top;spacingLeft=4;spacingRight=4;overflow=hidden;rotatable=0;points=[[0,0.5],[1,0.5]];portConstraint=eastwest;whiteSpace=wrap;html=1;gradientColor=none;" parent="_Bd6D42fP3kql52XD8L3-35" vertex="1">
          <mxGeometry y="148" width="210" height="72" as="geometry" />
        </mxCell>
        <mxCell id="_Bd6D42fP3kql52XD8L3-39" value="Oleadas" style="swimlane;fontStyle=1;align=center;verticalAlign=top;childLayout=stackLayout;horizontal=1;startSize=26;horizontalStack=0;resizeParent=1;resizeParentMax=0;resizeLast=0;collapsible=1;marginBottom=0;whiteSpace=wrap;html=1;" parent="1" vertex="1">
          <mxGeometry x="190" y="360" width="240" height="340" as="geometry" />
        </mxCell>
        <mxCell id="_Bd6D42fP3kql52XD8L3-40" value="- enemigos : ArrayList&amp;lt;Monstruo&amp;gt;&lt;br&gt;- random : Random&lt;br&gt;- MAX_ENEMIGOS : int&lt;br&gt;- DISTANCIA_GENERACION : int&lt;br&gt;- numeroEnemigosEnfrentados : int&lt;br&gt;- oleadaActual : int&lt;br&gt;- ENEMIGOS_POR_OLEADA : int" style="text;strokeColor=none;fillColor=default;align=left;verticalAlign=top;spacingLeft=4;spacingRight=4;overflow=hidden;rotatable=0;points=[[0,0.5],[1,0.5]];portConstraint=eastwest;whiteSpace=wrap;html=1;" parent="_Bd6D42fP3kql52XD8L3-39" vertex="1">
          <mxGeometry y="26" width="240" height="114" as="geometry" />
        </mxCell>
        <mxCell id="_Bd6D42fP3kql52XD8L3-41" value="" style="line;strokeWidth=1;fillColor=default;align=left;verticalAlign=middle;spacingTop=-1;spacingLeft=3;spacingRight=3;rotatable=0;labelPosition=right;points=[];portConstraint=eastwest;strokeColor=inherit;" parent="_Bd6D42fP3kql52XD8L3-39" vertex="1">
          <mxGeometry y="140" width="240" height="8" as="geometry" />
        </mxCell>
        <mxCell id="_Bd6D42fP3kql52XD8L3-42" value="+ Oleadas()&amp;nbsp;&lt;br&gt;+ nuevaOleada(Ventanajuego juego) : void&lt;br&gt;+ getOleadaActual() : int&lt;br&gt;+ agregarEnemigo(Monstruo) : void&lt;br&gt;+ eliminarEnemigo(Monstruo) : void&lt;br&gt;+ getNumeroEnemigosEnfrentados() : int&lt;br&gt;+ generarEnemigos(int, int) : void&lt;br&gt;+ actualizarEstado(Jugador) : void&lt;br&gt;+ eliminarEnemigosMuertos() : void&lt;br&gt;+ getEnemigos() : ArrayList&amp;lt;Monstruo&amp;gt;&lt;br&gt;+ getMAX_ENEMIGOS() : int&lt;br&gt;+ actualizarJuego(Jugador, int, int) : void" style="text;strokeColor=none;fillColor=default;align=left;verticalAlign=top;spacingLeft=4;spacingRight=4;overflow=hidden;rotatable=0;points=[[0,0.5],[1,0.5]];portConstraint=eastwest;whiteSpace=wrap;html=1;gradientColor=none;" parent="_Bd6D42fP3kql52XD8L3-39" vertex="1">
          <mxGeometry y="148" width="240" height="192" as="geometry" />
        </mxCell>
        <mxCell id="_Bd6D42fP3kql52XD8L3-60" style="edgeStyle=orthogonalEdgeStyle;rounded=0;orthogonalLoop=1;jettySize=auto;html=1;entryX=0.5;entryY=1;entryDx=0;entryDy=0;" parent="1" source="_Bd6D42fP3kql52XD8L3-43" target="_Bd6D42fP3kql52XD8L3-31" edge="1">
          <mxGeometry relative="1" as="geometry" />
        </mxCell>
        <mxCell id="_Bd6D42fP3kql52XD8L3-43" value="TipoMonstruos" style="swimlane;fontStyle=1;align=center;verticalAlign=top;childLayout=stackLayout;horizontal=1;startSize=26;horizontalStack=0;resizeParent=1;resizeParentMax=0;resizeLast=0;collapsible=1;marginBottom=0;whiteSpace=wrap;html=1;" parent="1" vertex="1">
          <mxGeometry x="204" y="1520" width="210" height="90" as="geometry" />
        </mxCell>
        <mxCell id="_Bd6D42fP3kql52XD8L3-44" value="" style="text;strokeColor=none;fillColor=default;align=left;verticalAlign=top;spacingLeft=4;spacingRight=4;overflow=hidden;rotatable=0;points=[[0,0.5],[1,0.5]];portConstraint=eastwest;whiteSpace=wrap;html=1;" parent="_Bd6D42fP3kql52XD8L3-43" vertex="1">
          <mxGeometry y="26" width="210" height="24" as="geometry" />
        </mxCell>
        <mxCell id="_Bd6D42fP3kql52XD8L3-45" value="" style="line;strokeWidth=1;fillColor=default;align=left;verticalAlign=middle;spacingTop=-1;spacingLeft=3;spacingRight=3;rotatable=0;labelPosition=right;points=[];portConstraint=eastwest;strokeColor=inherit;" parent="_Bd6D42fP3kql52XD8L3-43" vertex="1">
          <mxGeometry y="50" width="210" height="8" as="geometry" />
        </mxCell>
        <mxCell id="_Bd6D42fP3kql52XD8L3-46" value="+ TipoMonstruos : enum" style="text;strokeColor=none;fillColor=default;align=left;verticalAlign=top;spacingLeft=4;spacingRight=4;overflow=hidden;rotatable=0;points=[[0,0.5],[1,0.5]];portConstraint=eastwest;whiteSpace=wrap;html=1;gradientColor=none;" parent="_Bd6D42fP3kql52XD8L3-43" vertex="1">
          <mxGeometry y="58" width="210" height="32" as="geometry" />
        </mxCell>
        <mxCell id="_Bd6D42fP3kql52XD8L3-47" value="Partida" style="swimlane;fontStyle=1;align=center;verticalAlign=top;childLayout=stackLayout;horizontal=1;startSize=26;horizontalStack=0;resizeParent=1;resizeParentMax=0;resizeLast=0;collapsible=1;marginBottom=0;whiteSpace=wrap;html=1;" parent="1" vertex="1">
          <mxGeometry x="470" y="360" width="210" height="90" as="geometry" />
        </mxCell>
        <mxCell id="_Bd6D42fP3kql52XD8L3-48" value="" style="text;strokeColor=none;fillColor=default;align=left;verticalAlign=top;spacingLeft=4;spacingRight=4;overflow=hidden;rotatable=0;points=[[0,0.5],[1,0.5]];portConstraint=eastwest;whiteSpace=wrap;html=1;" parent="_Bd6D42fP3kql52XD8L3-47" vertex="1">
          <mxGeometry y="26" width="210" height="24" as="geometry" />
        </mxCell>
        <mxCell id="_Bd6D42fP3kql52XD8L3-49" value="" style="line;strokeWidth=1;fillColor=default;align=left;verticalAlign=middle;spacingTop=-1;spacingLeft=3;spacingRight=3;rotatable=0;labelPosition=right;points=[];portConstraint=eastwest;strokeColor=inherit;" parent="_Bd6D42fP3kql52XD8L3-47" vertex="1">
          <mxGeometry y="50" width="210" height="8" as="geometry" />
        </mxCell>
        <mxCell id="_Bd6D42fP3kql52XD8L3-50" value="+ main (String[] args) : void" style="text;strokeColor=none;fillColor=default;align=left;verticalAlign=top;spacingLeft=4;spacingRight=4;overflow=hidden;rotatable=0;points=[[0,0.5],[1,0.5]];portConstraint=eastwest;whiteSpace=wrap;html=1;gradientColor=none;" parent="_Bd6D42fP3kql52XD8L3-47" vertex="1">
          <mxGeometry y="58" width="210" height="32" as="geometry" />
        </mxCell>
        <mxCell id="_Bd6D42fP3kql52XD8L3-51" value="Ventanagrafica" style="swimlane;fontStyle=1;align=center;verticalAlign=top;childLayout=stackLayout;horizontal=1;startSize=26;horizontalStack=0;resizeParent=1;resizeParentMax=0;resizeLast=0;collapsible=1;marginBottom=0;whiteSpace=wrap;html=1;" parent="1" vertex="1">
          <mxGeometry x="730" y="360" width="210" height="160" as="geometry" />
        </mxCell>
        <mxCell id="_Bd6D42fP3kql52XD8L3-52" value="- backgroundImage : Image" style="text;strokeColor=none;fillColor=default;align=left;verticalAlign=top;spacingLeft=4;spacingRight=4;overflow=hidden;rotatable=0;points=[[0,0.5],[1,0.5]];portConstraint=eastwest;whiteSpace=wrap;html=1;" parent="_Bd6D42fP3kql52XD8L3-51" vertex="1">
          <mxGeometry y="26" width="210" height="24" as="geometry" />
        </mxCell>
        <mxCell id="_Bd6D42fP3kql52XD8L3-53" value="" style="line;strokeWidth=1;fillColor=default;align=left;verticalAlign=middle;spacingTop=-1;spacingLeft=3;spacingRight=3;rotatable=0;labelPosition=right;points=[];portConstraint=eastwest;strokeColor=inherit;" parent="_Bd6D42fP3kql52XD8L3-51" vertex="1">
          <mxGeometry y="50" width="210" height="8" as="geometry" />
        </mxCell>
        <mxCell id="_Bd6D42fP3kql52XD8L3-54" value="- ImagePanel : class&lt;br style=&quot;border-color: var(--border-color);&quot;&gt;&#x9;+ ImagePanel()&lt;br style=&quot;border-color: var(--border-color);&quot;&gt;&lt;span style=&quot;border-color: var(--border-color);&quot;&gt;&lt;span style=&quot;white-space: pre;&quot;&gt;&amp;nbsp;&amp;nbsp;&amp;nbsp;&amp;nbsp;&lt;/span&gt;&lt;/span&gt;- paintComponent(Graphics) : void&lt;br&gt;+ Ventanagrafica()&amp;nbsp;&lt;br&gt;+ iniciarJuego() : void&lt;br&gt;+ main (String[] args) : void" style="text;strokeColor=none;fillColor=default;align=left;verticalAlign=top;spacingLeft=4;spacingRight=4;overflow=hidden;rotatable=0;points=[[0,0.5],[1,0.5]];portConstraint=eastwest;whiteSpace=wrap;html=1;gradientColor=none;" parent="_Bd6D42fP3kql52XD8L3-51" vertex="1">
          <mxGeometry y="58" width="210" height="102" as="geometry" />
        </mxCell>
        <mxCell id="_Bd6D42fP3kql52XD8L3-55" value="Ventanajuego" style="swimlane;fontStyle=1;align=center;verticalAlign=top;childLayout=stackLayout;horizontal=1;startSize=26;horizontalStack=0;resizeParent=1;resizeParentMax=0;resizeLast=0;collapsible=1;marginBottom=0;whiteSpace=wrap;html=1;" parent="1" vertex="1">
          <mxGeometry x="990" y="360" width="340" height="700" as="geometry" />
        </mxCell>
        <mxCell id="_Bd6D42fP3kql52XD8L3-56" value="- frame : JFrame&lt;br&gt;- jugador : Jugador&lt;br&gt;- oleadas : Oleadas&amp;nbsp;&lt;br&gt;- ultimaPosicionPersonaje : Point&lt;br&gt;- iconoFondo : ImageIcon&lt;br&gt;- etiquetaFondo : JLabel&lt;br&gt;- xFondo : int&lt;br&gt;- yFondo : int&lt;br&gt;- MOVIMIENTO_PASO : int&lt;br&gt;- iconoPersonaje : ImageIcon&lt;br&gt;- etiquetaPersonaje : JLabel&amp;nbsp;&lt;br&gt;- etiquetasEnemigos : ArrayList&amp;lt;JLabel&amp;gt;&lt;br&gt;- ANCHO_MAPA : int&lt;br&gt;- ALTO_MAPA : int&lt;br&gt;- MAX_ENEMIGOS : int&lt;br&gt;- etiquetaOleadas : JLabel&lt;br&gt;- barraVida : JProgressBar&lt;br&gt;- barraCooldownEscudo : JProgressBar&lt;br&gt;- barraCooldownAtaqueMasivo : JProgressBar&lt;br&gt;- curaciones : ArrayList&amp;lt;Curacion&amp;gt;&lt;br&gt;- powerUpsDanio : ArrayList&amp;lt;PowerUpDanio&amp;gt;&lt;br&gt;- powerUpsVelocidad : ArrayList&amp;lt;PowerUpVelocidad&amp;gt;&amp;nbsp;" style="text;strokeColor=none;fillColor=default;align=left;verticalAlign=top;spacingLeft=4;spacingRight=4;overflow=hidden;rotatable=0;points=[[0,0.5],[1,0.5]];portConstraint=eastwest;whiteSpace=wrap;html=1;" parent="_Bd6D42fP3kql52XD8L3-55" vertex="1">
          <mxGeometry y="26" width="340" height="354" as="geometry" />
        </mxCell>
        <mxCell id="_Bd6D42fP3kql52XD8L3-57" value="" style="line;strokeWidth=1;fillColor=default;align=left;verticalAlign=middle;spacingTop=-1;spacingLeft=3;spacingRight=3;rotatable=0;labelPosition=right;points=[];portConstraint=eastwest;strokeColor=inherit;" parent="_Bd6D42fP3kql52XD8L3-55" vertex="1">
          <mxGeometry y="380" width="340" height="8" as="geometry" />
        </mxCell>
        <mxCell id="_Bd6D42fP3kql52XD8L3-58" value="&lt;div&gt;+ Ventanajuego(JFrame frame):&amp;nbsp;&lt;/div&gt;&lt;div&gt;+generarOleada(): void&lt;/div&gt;&lt;div&gt;+actualizarEtiquetas(): void&lt;/div&gt;&lt;div&gt;+keyPressed(KeyEvent e): void&lt;/div&gt;&lt;div&gt;+actualizarPosicionPersonajeYFondo(int dx, int dy): void&lt;/div&gt;&lt;div&gt;+moverEnemigosHaciaUltimaPosicion(): void&lt;/div&gt;&lt;div&gt;+keyTyped(KeyEvent e): void&lt;/div&gt;&lt;div&gt;+keyReleased(KeyEvent e): void&lt;/div&gt;&lt;div&gt;+main(String[] args): void&lt;/div&gt;" style="text;strokeColor=none;fillColor=default;align=left;verticalAlign=top;spacingLeft=4;spacingRight=4;overflow=hidden;rotatable=0;points=[[0,0.5],[1,0.5]];portConstraint=eastwest;whiteSpace=wrap;html=1;gradientColor=none;" parent="_Bd6D42fP3kql52XD8L3-55" vertex="1">
          <mxGeometry y="388" width="340" height="312" as="geometry" />
        </mxCell>
        <mxCell id="_Bd6D42fP3kql52XD8L3-68" style="edgeStyle=orthogonalEdgeStyle;rounded=0;orthogonalLoop=1;jettySize=auto;html=1;exitX=0.5;exitY=0;exitDx=0;exitDy=0;entryX=0.5;entryY=1;entryDx=0;entryDy=0;entryPerimeter=0;" parent="1" source="_Bd6D42fP3kql52XD8L3-23" target="_Bd6D42fP3kql52XD8L3-17" edge="1">
          <mxGeometry relative="1" as="geometry">
            <Array as="points">
              <mxPoint x="-230" y="290" />
              <mxPoint x="295" y="290" />
            </Array>
          </mxGeometry>
        </mxCell>
        <mxCell id="_Bd6D42fP3kql52XD8L3-69" style="edgeStyle=orthogonalEdgeStyle;rounded=0;orthogonalLoop=1;jettySize=auto;html=1;exitX=0.5;exitY=0;exitDx=0;exitDy=0;entryX=0.5;entryY=1;entryDx=0;entryDy=0;entryPerimeter=0;" parent="1" source="_Bd6D42fP3kql52XD8L3-35" target="_Bd6D42fP3kql52XD8L3-17" edge="1">
          <mxGeometry relative="1" as="geometry">
            <Array as="points">
              <mxPoint x="35" y="290" />
              <mxPoint x="295" y="290" />
            </Array>
          </mxGeometry>
        </mxCell>
        <mxCell id="_Bd6D42fP3kql52XD8L3-70" style="edgeStyle=orthogonalEdgeStyle;rounded=0;orthogonalLoop=1;jettySize=auto;html=1;exitX=0.5;exitY=0;exitDx=0;exitDy=0;entryX=0.5;entryY=1;entryDx=0;entryDy=0;entryPerimeter=0;" parent="1" source="_Bd6D42fP3kql52XD8L3-39" target="_Bd6D42fP3kql52XD8L3-17" edge="1">
          <mxGeometry relative="1" as="geometry" />
        </mxCell>
        <mxCell id="_Bd6D42fP3kql52XD8L3-71" style="edgeStyle=orthogonalEdgeStyle;rounded=0;orthogonalLoop=1;jettySize=auto;html=1;entryX=0.5;entryY=1;entryDx=0;entryDy=0;entryPerimeter=0;" parent="1" source="_Bd6D42fP3kql52XD8L3-47" target="_Bd6D42fP3kql52XD8L3-17" edge="1">
          <mxGeometry relative="1" as="geometry">
            <Array as="points">
              <mxPoint x="575" y="290" />
              <mxPoint x="295" y="290" />
            </Array>
          </mxGeometry>
        </mxCell>
        <mxCell id="_Bd6D42fP3kql52XD8L3-73" style="edgeStyle=orthogonalEdgeStyle;rounded=0;orthogonalLoop=1;jettySize=auto;html=1;exitX=0.5;exitY=0;exitDx=0;exitDy=0;entryX=0.5;entryY=1;entryDx=0;entryDy=0;entryPerimeter=0;" parent="1" source="_Bd6D42fP3kql52XD8L3-51" target="_Bd6D42fP3kql52XD8L3-17" edge="1">
          <mxGeometry relative="1" as="geometry">
            <Array as="points">
              <mxPoint x="835" y="290" />
              <mxPoint x="295" y="290" />
            </Array>
          </mxGeometry>
        </mxCell>
        <mxCell id="_Bd6D42fP3kql52XD8L3-75" style="edgeStyle=orthogonalEdgeStyle;rounded=0;orthogonalLoop=1;jettySize=auto;html=1;exitX=0.5;exitY=0;exitDx=0;exitDy=0;entryX=0.5;entryY=1;entryDx=0;entryDy=0;entryPerimeter=0;" parent="1" source="_Bd6D42fP3kql52XD8L3-55" target="_Bd6D42fP3kql52XD8L3-17" edge="1">
          <mxGeometry relative="1" as="geometry">
            <Array as="points">
              <mxPoint x="1160" y="290" />
              <mxPoint x="295" y="290" />
            </Array>
          </mxGeometry>
        </mxCell>
        <mxCell id="_Bd6D42fP3kql52XD8L3-88" style="edgeStyle=orthogonalEdgeStyle;rounded=0;orthogonalLoop=1;jettySize=auto;html=1;entryX=0.5;entryY=1;entryDx=0;entryDy=0;entryPerimeter=0;" parent="1" target="_Bd6D42fP3kql52XD8L3-17" edge="1">
          <mxGeometry relative="1" as="geometry">
            <Array as="points">
              <mxPoint x="-470" y="290" />
              <mxPoint x="295" y="290" />
            </Array>
            <mxPoint x="-470" y="360" as="sourcePoint" />
          </mxGeometry>
        </mxCell>
        <mxCell id="JYbz05aqaSbrDswu4S4c-1" value="&lt;p style=&quot;margin:0px;margin-top:4px;text-align:center;&quot;&gt;&lt;i&gt;&amp;lt;&amp;lt;Interface&amp;gt;&amp;gt;&lt;/i&gt;&lt;br&gt;&lt;b&gt;Observador&lt;/b&gt;&lt;/p&gt;&lt;hr size=&quot;1&quot;&gt;&lt;p style=&quot;margin:0px;margin-left:4px;&quot;&gt;&lt;br&gt;&lt;/p&gt;&lt;hr size=&quot;1&quot;&gt;&lt;p style=&quot;margin:0px;margin-left:4px;&quot;&gt;+ actualizar(Monstruo monstruo) : void&lt;br&gt;&lt;/p&gt;" style="verticalAlign=top;align=left;overflow=fill;fontSize=12;fontFamily=Helvetica;html=1;whiteSpace=wrap;" parent="1" vertex="1">
          <mxGeometry x="-810" y="360" width="220" height="140" as="geometry" />
        </mxCell>
        <mxCell id="JYbz05aqaSbrDswu4S4c-3" style="edgeStyle=orthogonalEdgeStyle;rounded=0;orthogonalLoop=1;jettySize=auto;html=1;entryX=0.5;entryY=1;entryDx=0;entryDy=0;" parent="1" source="JYbz05aqaSbrDswu4S4c-2" target="JYbz05aqaSbrDswu4S4c-1" edge="1">
          <mxGeometry relative="1" as="geometry" />
        </mxCell>
        <mxCell id="JYbz05aqaSbrDswu4S4c-2" value="&lt;p style=&quot;margin:0px;margin-top:4px;text-align:center;&quot;&gt;&lt;i&gt;&amp;lt;&amp;lt;Interface&amp;gt;&amp;gt;&lt;/i&gt;&lt;br&gt;&lt;b&gt;Sujeto&lt;/b&gt;&lt;/p&gt;&lt;hr size=&quot;1&quot;&gt;&lt;p style=&quot;margin:0px;margin-left:4px;&quot;&gt;&lt;br&gt;&lt;/p&gt;&lt;hr size=&quot;1&quot;&gt;&lt;p style=&quot;margin:0px;margin-left:4px;&quot;&gt;+ agregarObservador(Observador observador) : void&lt;br&gt;&lt;/p&gt;&lt;p style=&quot;margin:0px;margin-left:4px;&quot;&gt;+ eliminarObservador(Observador observador) : void&lt;br&gt;&lt;/p&gt;&lt;p style=&quot;margin:0px;margin-left:4px;&quot;&gt;+ notificarObservadores() : void&lt;br&gt;&lt;/p&gt;" style="verticalAlign=top;align=left;overflow=fill;fontSize=12;fontFamily=Helvetica;html=1;whiteSpace=wrap;" parent="1" vertex="1">
          <mxGeometry x="-850" y="584" width="300" height="140" as="geometry" />
        </mxCell>
        <mxCell id="JYbz05aqaSbrDswu4S4c-4" style="edgeStyle=orthogonalEdgeStyle;rounded=0;orthogonalLoop=1;jettySize=auto;html=1;entryX=0.5;entryY=1;entryDx=0;entryDy=0;entryPerimeter=0;" parent="1" source="JYbz05aqaSbrDswu4S4c-1" target="_Bd6D42fP3kql52XD8L3-17" edge="1">
          <mxGeometry relative="1" as="geometry">
            <Array as="points">
              <mxPoint x="-700" y="290" />
              <mxPoint x="295" y="290" />
            </Array>
          </mxGeometry>
        </mxCell>
        <mxCell id="JYbz05aqaSbrDswu4S4c-5" value="Curacion" style="swimlane;fontStyle=1;align=center;verticalAlign=top;childLayout=stackLayout;horizontal=1;startSize=26;horizontalStack=0;resizeParent=1;resizeParentMax=0;resizeLast=0;collapsible=1;marginBottom=0;whiteSpace=wrap;html=1;" parent="1" vertex="1">
          <mxGeometry x="-1030" y="360" width="190" height="170" as="geometry" />
        </mxCell>
        <mxCell id="JYbz05aqaSbrDswu4S4c-6" value="- x : int&lt;br&gt;- y : int&lt;br&gt;- etiquetaCuracion : JLabel&lt;br&gt;- valorCuracion : int&lt;br&gt;" style="text;strokeColor=none;fillColor=default;align=left;verticalAlign=top;spacingLeft=4;spacingRight=4;overflow=hidden;rotatable=0;points=[[0,0.5],[1,0.5]];portConstraint=eastwest;whiteSpace=wrap;html=1;" parent="JYbz05aqaSbrDswu4S4c-5" vertex="1">
          <mxGeometry y="26" width="190" height="74" as="geometry" />
        </mxCell>
        <mxCell id="JYbz05aqaSbrDswu4S4c-7" value="" style="line;strokeWidth=1;fillColor=default;align=left;verticalAlign=middle;spacingTop=-1;spacingLeft=3;spacingRight=3;rotatable=0;labelPosition=right;points=[];portConstraint=eastwest;strokeColor=inherit;" parent="JYbz05aqaSbrDswu4S4c-5" vertex="1">
          <mxGeometry y="100" width="190" height="8" as="geometry" />
        </mxCell>
        <mxCell id="JYbz05aqaSbrDswu4S4c-8" value="+ Curacion(int, int)&lt;br&gt;+ getEtiquetaCuracion() : JLabel&lt;br&gt;+ getValorCuracion() : int" style="text;strokeColor=none;fillColor=default;align=left;verticalAlign=top;spacingLeft=4;spacingRight=4;overflow=hidden;rotatable=0;points=[[0,0.5],[1,0.5]];portConstraint=eastwest;whiteSpace=wrap;html=1;gradientColor=none;" parent="JYbz05aqaSbrDswu4S4c-5" vertex="1">
          <mxGeometry y="108" width="190" height="62" as="geometry" />
        </mxCell>
        <mxCell id="JYbz05aqaSbrDswu4S4c-9" value="FinJuegoVentana" style="swimlane;fontStyle=1;align=center;verticalAlign=top;childLayout=stackLayout;horizontal=1;startSize=26;horizontalStack=0;resizeParent=1;resizeParentMax=0;resizeLast=0;collapsible=1;marginBottom=0;whiteSpace=wrap;html=1;" parent="1" vertex="1">
          <mxGeometry x="-1290" y="360" width="230" height="170" as="geometry" />
        </mxCell>
        <mxCell id="JYbz05aqaSbrDswu4S4c-10" value="- tiempoVivido : int&lt;br&gt;- enemigosEnfrentados : int&lt;br&gt;- backgroundImage : Image" style="text;strokeColor=none;fillColor=default;align=left;verticalAlign=top;spacingLeft=4;spacingRight=4;overflow=hidden;rotatable=0;points=[[0,0.5],[1,0.5]];portConstraint=eastwest;whiteSpace=wrap;html=1;" parent="JYbz05aqaSbrDswu4S4c-9" vertex="1">
          <mxGeometry y="26" width="230" height="64" as="geometry" />
        </mxCell>
        <mxCell id="JYbz05aqaSbrDswu4S4c-11" value="" style="line;strokeWidth=1;fillColor=default;align=left;verticalAlign=middle;spacingTop=-1;spacingLeft=3;spacingRight=3;rotatable=0;labelPosition=right;points=[];portConstraint=eastwest;strokeColor=inherit;" parent="JYbz05aqaSbrDswu4S4c-9" vertex="1">
          <mxGeometry y="90" width="230" height="8" as="geometry" />
        </mxCell>
        <mxCell id="JYbz05aqaSbrDswu4S4c-12" value="- ImagePanel : class&lt;br&gt;&lt;span style=&quot;white-space: pre;&quot;&gt;&#x9;&lt;/span&gt;+ ImagePanel()&lt;br&gt;&lt;span style=&quot;white-space: pre;&quot;&gt;&#x9;&lt;/span&gt;- paintComponent(Graphics) : void&lt;br&gt;+ FinJuegoVentana(JFrame, int, int)" style="text;strokeColor=none;fillColor=default;align=left;verticalAlign=top;spacingLeft=4;spacingRight=4;overflow=hidden;rotatable=0;points=[[0,0.5],[1,0.5]];portConstraint=eastwest;whiteSpace=wrap;html=1;gradientColor=none;" parent="JYbz05aqaSbrDswu4S4c-9" vertex="1">
          <mxGeometry y="98" width="230" height="72" as="geometry" />
        </mxCell>
        <mxCell id="JYbz05aqaSbrDswu4S4c-13" style="edgeStyle=orthogonalEdgeStyle;rounded=0;orthogonalLoop=1;jettySize=auto;html=1;entryX=0.5;entryY=1;entryDx=0;entryDy=0;entryPerimeter=0;" parent="1" source="JYbz05aqaSbrDswu4S4c-5" target="_Bd6D42fP3kql52XD8L3-17" edge="1">
          <mxGeometry relative="1" as="geometry">
            <Array as="points">
              <mxPoint x="-935" y="290" />
              <mxPoint x="295" y="290" />
            </Array>
          </mxGeometry>
        </mxCell>
        <mxCell id="JYbz05aqaSbrDswu4S4c-14" style="edgeStyle=orthogonalEdgeStyle;rounded=0;orthogonalLoop=1;jettySize=auto;html=1;entryX=0.5;entryY=1;entryDx=0;entryDy=0;entryPerimeter=0;" parent="1" source="JYbz05aqaSbrDswu4S4c-9" target="_Bd6D42fP3kql52XD8L3-17" edge="1">
          <mxGeometry relative="1" as="geometry">
            <Array as="points">
              <mxPoint x="-1175" y="290" />
              <mxPoint x="295" y="290" />
            </Array>
          </mxGeometry>
        </mxCell>
        <mxCell id="JYbz05aqaSbrDswu4S4c-23" value="PowerUp" style="swimlane;fontStyle=1;align=center;verticalAlign=top;childLayout=stackLayout;horizontal=1;startSize=26;horizontalStack=0;resizeParent=1;resizeParentMax=0;resizeLast=0;collapsible=1;marginBottom=0;whiteSpace=wrap;html=1;" parent="1" vertex="1">
          <mxGeometry x="-1540" y="360" width="210" height="190" as="geometry" />
        </mxCell>
        <mxCell id="JYbz05aqaSbrDswu4S4c-24" value="- x : int&lt;br&gt;- y : int&lt;br&gt;- etiquetaPowerUp : JLabel" style="text;strokeColor=none;fillColor=default;align=left;verticalAlign=top;spacingLeft=4;spacingRight=4;overflow=hidden;rotatable=0;points=[[0,0.5],[1,0.5]];portConstraint=eastwest;whiteSpace=wrap;html=1;" parent="JYbz05aqaSbrDswu4S4c-23" vertex="1">
          <mxGeometry y="26" width="210" height="74" as="geometry" />
        </mxCell>
        <mxCell id="JYbz05aqaSbrDswu4S4c-25" value="" style="line;strokeWidth=1;fillColor=default;align=left;verticalAlign=middle;spacingTop=-1;spacingLeft=3;spacingRight=3;rotatable=0;labelPosition=right;points=[];portConstraint=eastwest;strokeColor=inherit;" parent="JYbz05aqaSbrDswu4S4c-23" vertex="1">
          <mxGeometry y="100" width="210" height="8" as="geometry" />
        </mxCell>
        <mxCell id="JYbz05aqaSbrDswu4S4c-26" value="+ PowerUp(int, int, String)&lt;br&gt;+ inicializarEtiqueta(String) : void&lt;br&gt;+ getEtiquetaPowerUp() : JLabel&lt;br&gt;+ activar(Jugador) : abstract void" style="text;strokeColor=none;fillColor=default;align=left;verticalAlign=top;spacingLeft=4;spacingRight=4;overflow=hidden;rotatable=0;points=[[0,0.5],[1,0.5]];portConstraint=eastwest;whiteSpace=wrap;html=1;gradientColor=none;" parent="JYbz05aqaSbrDswu4S4c-23" vertex="1">
          <mxGeometry y="108" width="210" height="82" as="geometry" />
        </mxCell>
        <mxCell id="JYbz05aqaSbrDswu4S4c-39" style="edgeStyle=orthogonalEdgeStyle;rounded=0;orthogonalLoop=1;jettySize=auto;html=1;entryX=0.5;entryY=1;entryDx=0;entryDy=0;" parent="1" source="JYbz05aqaSbrDswu4S4c-27" target="JYbz05aqaSbrDswu4S4c-23" edge="1">
          <mxGeometry relative="1" as="geometry" />
        </mxCell>
        <mxCell id="JYbz05aqaSbrDswu4S4c-27" value="PowerUpDanio" style="swimlane;fontStyle=1;align=center;verticalAlign=top;childLayout=stackLayout;horizontal=1;startSize=26;horizontalStack=0;resizeParent=1;resizeParentMax=0;resizeLast=0;collapsible=1;marginBottom=0;whiteSpace=wrap;html=1;" parent="1" vertex="1">
          <mxGeometry x="-1680" y="630" width="230" height="120" as="geometry" />
        </mxCell>
        <mxCell id="JYbz05aqaSbrDswu4S4c-28" value="- aumentoDanio : int&lt;br&gt;- duracion : int" style="text;strokeColor=none;fillColor=default;align=left;verticalAlign=top;spacingLeft=4;spacingRight=4;overflow=hidden;rotatable=0;points=[[0,0.5],[1,0.5]];portConstraint=eastwest;whiteSpace=wrap;html=1;" parent="JYbz05aqaSbrDswu4S4c-27" vertex="1">
          <mxGeometry y="26" width="230" height="44" as="geometry" />
        </mxCell>
        <mxCell id="JYbz05aqaSbrDswu4S4c-29" value="" style="line;strokeWidth=1;fillColor=default;align=left;verticalAlign=middle;spacingTop=-1;spacingLeft=3;spacingRight=3;rotatable=0;labelPosition=right;points=[];portConstraint=eastwest;strokeColor=inherit;" parent="JYbz05aqaSbrDswu4S4c-27" vertex="1">
          <mxGeometry y="70" width="230" height="8" as="geometry" />
        </mxCell>
        <mxCell id="JYbz05aqaSbrDswu4S4c-30" value="+ PowerUpDanio(int, int, String, int, int)&lt;br&gt;+ activar(Jugador) : void" style="text;strokeColor=none;fillColor=default;align=left;verticalAlign=top;spacingLeft=4;spacingRight=4;overflow=hidden;rotatable=0;points=[[0,0.5],[1,0.5]];portConstraint=eastwest;whiteSpace=wrap;html=1;gradientColor=none;" parent="JYbz05aqaSbrDswu4S4c-27" vertex="1">
          <mxGeometry y="78" width="230" height="42" as="geometry" />
        </mxCell>
        <mxCell id="JYbz05aqaSbrDswu4S4c-40" style="edgeStyle=orthogonalEdgeStyle;rounded=0;orthogonalLoop=1;jettySize=auto;html=1;entryX=0.5;entryY=1;entryDx=0;entryDy=0;" parent="1" source="JYbz05aqaSbrDswu4S4c-35" target="JYbz05aqaSbrDswu4S4c-23" edge="1">
          <mxGeometry relative="1" as="geometry" />
        </mxCell>
        <mxCell id="JYbz05aqaSbrDswu4S4c-35" value="PowerUpVelocidad" style="swimlane;fontStyle=1;align=center;verticalAlign=top;childLayout=stackLayout;horizontal=1;startSize=26;horizontalStack=0;resizeParent=1;resizeParentMax=0;resizeLast=0;collapsible=1;marginBottom=0;whiteSpace=wrap;html=1;" parent="1" vertex="1">
          <mxGeometry x="-1420" y="630" width="250" height="120" as="geometry" />
        </mxCell>
        <mxCell id="JYbz05aqaSbrDswu4S4c-36" value="- aumentoVelocidad : int&lt;br&gt;- duracion : int" style="text;strokeColor=none;fillColor=default;align=left;verticalAlign=top;spacingLeft=4;spacingRight=4;overflow=hidden;rotatable=0;points=[[0,0.5],[1,0.5]];portConstraint=eastwest;whiteSpace=wrap;html=1;" parent="JYbz05aqaSbrDswu4S4c-35" vertex="1">
          <mxGeometry y="26" width="250" height="44" as="geometry" />
        </mxCell>
        <mxCell id="JYbz05aqaSbrDswu4S4c-37" value="" style="line;strokeWidth=1;fillColor=default;align=left;verticalAlign=middle;spacingTop=-1;spacingLeft=3;spacingRight=3;rotatable=0;labelPosition=right;points=[];portConstraint=eastwest;strokeColor=inherit;" parent="JYbz05aqaSbrDswu4S4c-35" vertex="1">
          <mxGeometry y="70" width="250" height="8" as="geometry" />
        </mxCell>
        <mxCell id="JYbz05aqaSbrDswu4S4c-38" value="+ PowerUpVelocidad(int, int, String, int, int)&lt;br&gt;+ activar(Jugador) : void" style="text;strokeColor=none;fillColor=default;align=left;verticalAlign=top;spacingLeft=4;spacingRight=4;overflow=hidden;rotatable=0;points=[[0,0.5],[1,0.5]];portConstraint=eastwest;whiteSpace=wrap;html=1;gradientColor=none;" parent="JYbz05aqaSbrDswu4S4c-35" vertex="1">
          <mxGeometry y="78" width="250" height="42" as="geometry" />
        </mxCell>
        <mxCell id="JYbz05aqaSbrDswu4S4c-41" style="edgeStyle=orthogonalEdgeStyle;rounded=0;orthogonalLoop=1;jettySize=auto;html=1;entryX=0.5;entryY=1;entryDx=0;entryDy=0;entryPerimeter=0;" parent="1" source="JYbz05aqaSbrDswu4S4c-23" target="_Bd6D42fP3kql52XD8L3-17" edge="1">
          <mxGeometry relative="1" as="geometry">
            <Array as="points">
              <mxPoint x="-1435" y="290" />
              <mxPoint x="295" y="290" />
            </Array>
          </mxGeometry>
        </mxCell>
      </root>
    </mxGraphModel>
  </diagram>
</mxfile>
